<?xml version="1.0" encoding="UTF-8" standalone="no"?>
<svg width="176px" height="32px" viewBox="0 0 176 32" version="1.1" xmlns="http://www.w3.org/2000/svg" xmlns:xlink="http://www.w3.org/1999/xlink" xmlns:sketch="http://www.bohemiancoding.com/sketch/ns">
    <!-- Generator: Sketch 3.1.1 (8761) - http://www.bohemiancoding.com/sketch -->
    <title>logotype</title>
    <desc>Created with Sketch.</desc>
    <defs></defs>
    <g id="logotype" stroke="none" stroke-width="1" fill="none" fill-rule="evenodd" sketch:type="MSPage">
        <g id="colour" sketch:type="MSLayerGroup">
            <g id="logo" transform="translate(0.500000, 0.000000)" sketch:type="MSShapeGroup">
                <path d="M12.1271335,2.25398282 L23.545679,2.25398282 L29.5425212,12.5369499 L29.5425212,12.5369499 C29.1979252,12.418759 28.8285958,12.3546577 28.4444444,12.3546577 C27.8517324,12.3546577 27.2943051,12.5072559 26.8085678,12.7756794 L22.1090909,4.71734397 L12.7764001,4.71734397 C12.7919851,4.58367455 12.8,4.44766488 12.8,4.30976431 C12.8,3.53937282 12.5498558,2.82799579 12.1271335,2.25398282 Z M6.06918627,5.12448183 L-0.158024691,15.8024691 L6.06918627,26.4804564 C6.29111446,25.5551709 6.88257419,24.775707 7.67685751,24.3104567 L2.71515152,15.8024691 L7.67685751,7.29448152 C6.88257419,6.82923125 6.29111446,6.04976739 6.06918627,5.12448183 Z M29.5425212,19.0679884 L25.2197026,26.4804564 L25.2197026,26.4804564 C24.9977744,25.5551709 24.4063147,24.775707 23.6120314,24.3104567 L26.8085678,18.8292589 C27.2943051,19.0976824 27.8517324,19.2502806 28.4444444,19.2502806 C28.8285958,19.2502806 29.1979252,19.1861793 29.5425212,19.0679884 L29.5425212,19.0679884 Z M19.1617553,29.3509555 L12.1271335,29.3509555 L12.1271335,29.3509555 C12.5498558,28.7769425 12.8,28.0655654 12.8,27.295174 C12.8,27.1572734 12.7919851,27.0212637 12.7764001,26.8875943 L18.5124888,26.8875943 C18.4969038,27.0212637 18.4888889,27.1572734 18.4888889,27.295174 C18.4888889,28.0655654 18.7390331,28.7769425 19.1617553,29.3509555 L19.1617553,29.3509555 Z" id="clipped-hex" fill="#9E9792"></path>
                <path d="M26.8442638,14.1682344 L11.5706096,4.9575278 L11.5706096,4.9575278 C11.4607698,5.33598892 11.2571317,5.67395484 10.9868474,5.94399906 L26.2605015,15.1547056 C26.3703413,14.7762445 26.5739794,14.4382786 26.8442638,14.1682344 Z" id="edge-1" fill="#AC5CF0"></path>
                <path d="M21.3386095,25.0676822 L10.9469495,5.98290729 L10.9469495,5.98290729 C10.6707963,6.24575928 10.3295759,6.43963013 9.9502794,6.53725604 L20.3419394,25.622031 C20.6180926,25.359179 20.959313,25.1653081 21.3386095,25.0676822 Z" id="edge-2" fill="#AC5CF0"></path>
                <path d="M9.95555556,25.0690471 L9.95555556,6.53589119 L9.95555556,6.53589119 C9.77372733,6.58316326 9.58310376,6.60830527 9.38666667,6.60830527 C9.19022958,6.60830527 8.999606,6.58316326 8.81777778,6.53589119 L8.81777778,25.0690471 C8.999606,25.021775 9.19022958,24.996633 9.38666667,24.996633 C9.58310376,24.996633 9.77372733,25.021775 9.95555556,25.0690471 Z" id="edge-3" fill="#AC5CF0"></path>
                <path d="M12.2311111,4.30976431 C12.2311111,2.72295291 10.95761,1.4365881 9.38666667,1.4365881 C7.81572338,1.4365881 6.54222222,2.72295291 6.54222222,4.30976431 C6.54222222,5.89657571 7.81572338,7.18294052 9.38666667,7.18294052 C10.95761,7.18294052 12.2311111,5.89657571 12.2311111,4.30976431 Z M7.68,4.30976431 C7.68,3.35767747 8.44410069,2.58585859 9.38666667,2.58585859 C10.3292326,2.58585859 11.0933333,3.35767747 11.0933333,4.30976431 C11.0933333,5.26185115 10.3292326,6.03367003 9.38666667,6.03367003 C8.44410069,6.03367003 7.68,5.26185115 7.68,4.30976431 Z" id="node-1" fill="#AC5CF0"></path>
                <path d="M31.2888889,15.8024691 C31.2888889,14.2156577 30.0153877,12.9292929 28.4444444,12.9292929 C26.8735012,12.9292929 25.6,14.2156577 25.6,15.8024691 C25.6,17.3892805 26.8735012,18.6756453 28.4444444,18.6756453 C30.0153877,18.6756453 31.2888889,17.3892805 31.2888889,15.8024691 Z M26.7377778,15.8024691 C26.7377778,14.8503823 27.5018785,14.0785634 28.4444444,14.0785634 C29.3870104,14.0785634 30.1511111,14.8503823 30.1511111,15.8024691 C30.1511111,16.754556 29.3870104,17.5263749 28.4444444,17.5263749 C27.5018785,17.5263749 26.7377778,16.754556 26.7377778,15.8024691 Z" id="node-2" fill="#AC5CF0"></path>
                <path d="M24.7466667,27.295174 C24.7466667,25.7083626 23.4731655,24.4219978 21.9022222,24.4219978 C20.3312789,24.4219978 19.0577778,25.7083626 19.0577778,27.295174 C19.0577778,28.8819854 20.3312789,30.1683502 21.9022222,30.1683502 C23.4731655,30.1683502 24.7466667,28.8819854 24.7466667,27.295174 Z M20.1955556,27.295174 C20.1955556,26.3430871 20.9596562,25.5712682 21.9022222,25.5712682 C22.8447882,25.5712682 23.6088889,26.3430871 23.6088889,27.295174 C23.6088889,28.2472608 22.8447882,29.0190797 21.9022222,29.0190797 C20.9596562,29.0190797 20.1955556,28.2472608 20.1955556,27.295174 Z" id="node-3" fill="#AC5CF0"></path>
                <path d="M12.2311111,27.295174 C12.2311111,25.7083626 10.95761,24.4219978 9.38666667,24.4219978 C7.81572338,24.4219978 6.54222222,25.7083626 6.54222222,27.295174 C6.54222222,28.8819854 7.81572338,30.1683502 9.38666667,30.1683502 C10.95761,30.1683502 12.2311111,28.8819854 12.2311111,27.295174 Z M7.68,27.295174 C7.68,26.3430871 8.44410069,25.5712682 9.38666667,25.5712682 C10.3292326,25.5712682 11.0933333,26.3430871 11.0933333,27.295174 C11.0933333,28.2472608 10.3292326,29.0190797 9.38666667,29.0190797 C8.44410069,29.0190797 7.68,28.2472608 7.68,27.295174 Z" id="node-4" fill="#AC5CF0"></path>
            </g>
            <g id="outlines" transform="translate(35.000000, 4.000000)" sketch:type="MSShapeGroup">
                <path d="M0.28,0.376 L0.28,23 L2.84,23 L2.84,9.72 C2.84,9.144 2.84,7.96 4.12,7.96 C5.144,7.96 5.304,8.696 5.304,9.528 L5.304,23 L7.896,23 L7.896,9.272 C7.896,8.152 7.896,5.592 5.272,5.592 C3.896,5.592 3.256,6.392 2.84,7 L2.84,0.376 L0.28,0.376 Z M10.296,11.352 L12.92,11.352 L12.92,8.952 C12.92,8.472 12.92,7.672 14.04,7.672 C15.064,7.672 15.16,8.408 15.16,8.984 L15.16,11.544 C15.16,11.704 14.68,12.184 14.136,12.536 L11.672,14.072 C10.104,15.064 10.104,16.024 10.104,17.272 L10.104,20.312 C10.104,21.144 10.104,23.192 12.536,23.192 C13.944,23.192 14.52,22.36 15,21.624 C15.16,22.264 15.192,22.392 15.448,23 L18.2,23 C17.752,22.072 17.72,21.144 17.72,20.088 L17.72,9.24 C17.72,8.12 17.72,5.56 14.008,5.56 C10.296,5.56 10.296,8.312 10.296,9.272 L10.296,11.352 Z M15.16,18.52 C15.16,18.936 15.16,21.144 13.688,21.144 C12.664,21.144 12.664,19.992 12.664,19.096 L12.664,17.368 C12.664,16.632 12.856,16.12 13.592,15.608 C14.136,15.256 14.904,14.712 15.16,14.488 L15.16,18.52 Z M23.704,15.896 C24.952,17.176 25.08,17.88 25.08,18.84 C25.08,19.704 25.08,21.048 23.704,21.048 C23.192,21.048 22.584,20.952 22.328,19.992 C22.232,19.512 22.232,18.936 22.232,16.696 L19.8,16.696 C19.8,19.544 19.8,20.184 20.12,21.08 C20.728,22.808 22.264,23.32 23.64,23.32 C25.848,23.32 27.608,21.912 27.608,18.68 C27.608,16.088 26.36,14.808 25.016,13.496 L23.832,12.344 C22.68,11.224 22.456,10.616 22.456,9.624 C22.456,9.08 22.488,7.992 23.704,7.992 C24.92,7.992 25.08,8.856 25.08,11 L27.48,11 C27.448,8.376 27.416,5.624 23.864,5.624 C21.048,5.624 20.056,7.512 20.056,9.848 C20.056,11.736 20.536,12.664 22.328,14.52 L23.704,15.896 Z M29.688,0.408 L29.688,23 L32.248,23 L32.248,16.472 L32.792,15.128 L34.776,23 L37.496,23 L34.616,12.408 L37.592,5.88 L34.84,5.88 L32.248,12.696 L32.248,0.408 L29.688,0.408 Z M38.968,19.736 C38.968,20.504 38.968,22.36 41.144,23.064 C41.624,23.224 42.136,23.288 42.68,23.288 C46.584,23.288 46.584,20.088 46.584,19.064 L46.584,16.632 L43.992,16.632 L43.992,19.64 C43.992,20.152 43.96,21.208 42.712,21.208 C41.496,21.208 41.496,20.28 41.496,19.8 L41.496,15 L46.584,15 L46.584,9.432 C46.584,8.664 46.584,5.592 42.808,5.592 C41.208,5.592 39.8,6.296 39.288,7.672 C38.968,8.408 38.968,9.336 38.968,10.552 L38.968,19.736 Z M43.992,12.856 L41.496,12.856 L41.496,9.56 C41.496,8.76 41.496,7.704 42.808,7.704 C43.992,7.704 43.992,8.568 43.992,9.272 L43.992,12.856 Z M49.112,23 L51.704,23 L51.704,0.408 L49.112,0.408 L49.112,23 Z M54.456,23 L57.048,23 L57.048,0.408 L54.456,0.408 L54.456,23 Z" id="type" fill="#6D6661"></path>
                <path d="M61.216,18.392 C61.216,20.408 61.216,23.288 64.992,23.288 C68.832,23.288 68.896,20.376 68.896,19.224 L68.896,9.592 C68.896,8.312 68.896,5.592 65.12,5.592 C61.216,5.592 61.216,8.824 61.216,10.488 L61.216,18.392 Z M66.368,19.448 C66.368,20.216 66.304,21.176 65.024,21.176 C63.776,21.176 63.776,20.312 63.776,19.64 L63.776,9.56 C63.776,8.792 63.776,7.704 65.12,7.704 C66.336,7.704 66.368,8.536 66.368,9.336 L66.368,19.448 Z M73.792,5.88 L71.264,5.88 L71.264,23 L73.824,23 L73.824,10.04 C73.824,9.176 73.824,7.928 75.168,7.928 C76.288,7.928 76.288,8.856 76.288,9.592 L76.288,23 L78.912,23 L78.912,9.112 C78.912,7.96 78.912,5.56 76.32,5.56 C74.912,5.56 74.24,6.424 73.792,6.968 L73.792,5.88 Z" id="type-2" fill="#9E9792"></path>
                <path d="M83.28,0.376 L83.28,23 L85.84,23 L85.84,9.72 C85.84,9.144 85.84,7.96 87.12,7.96 C88.144,7.96 88.304,8.696 88.304,9.528 L88.304,23 L90.896,23 L90.896,9.272 C90.896,8.152 90.896,5.592 88.272,5.592 C86.896,5.592 86.256,6.392 85.84,7 L85.84,0.376 L83.28,0.376 Z M93.264,19.736 C93.264,20.504 93.264,22.36 95.44,23.064 C95.92,23.224 96.432,23.288 96.976,23.288 C100.88,23.288 100.88,20.088 100.88,19.064 L100.88,16.632 L98.288,16.632 L98.288,19.64 C98.288,20.152 98.256,21.208 97.008,21.208 C95.792,21.208 95.792,20.28 95.792,19.8 L95.792,15 L100.88,15 L100.88,9.432 C100.88,8.664 100.88,5.592 97.104,5.592 C95.504,5.592 94.096,6.296 93.584,7.672 C93.264,8.408 93.264,9.336 93.264,10.552 L93.264,19.736 Z M98.288,12.856 L95.792,12.856 L95.792,9.56 C95.792,8.76 95.792,7.704 97.104,7.704 C98.288,7.704 98.288,8.568 98.288,9.272 L98.288,12.856 Z M105.904,5.848 L103.28,5.848 L103.28,23 L105.84,23 L105.84,11.512 C105.84,10.328 105.872,8.184 107.696,8.184 C108.464,8.184 108.912,8.472 109.232,8.696 L109.232,5.72 C109.008,5.688 108.784,5.656 108.528,5.656 C106.928,5.656 106.384,6.84 105.904,7.832 L105.904,5.848 Z M110.576,18.392 C110.576,20.408 110.576,23.288 114.352,23.288 C118.192,23.288 118.256,20.376 118.256,19.224 L118.256,9.592 C118.256,8.312 118.256,5.592 114.48,5.592 C110.576,5.592 110.576,8.824 110.576,10.488 L110.576,18.392 Z M115.728,19.448 C115.728,20.216 115.664,21.176 114.384,21.176 C113.136,21.176 113.136,20.312 113.136,19.64 L113.136,9.56 C113.136,8.792 113.136,7.704 114.48,7.704 C115.696,7.704 115.728,8.536 115.728,9.336 L115.728,19.448 Z M120.688,0.408 L120.688,23 L123.248,23 L123.248,16.472 L123.792,15.128 L125.776,23 L128.496,23 L125.616,12.408 L128.592,5.88 L125.84,5.88 L123.248,12.696 L123.248,0.408 L120.688,0.408 Z M135.024,23 L137.552,23 L137.552,5.88 L134.992,5.88 L134.992,18.84 C134.992,19.704 134.992,20.952 133.648,20.952 C132.528,20.952 132.528,20.024 132.528,19.288 L132.528,5.88 L129.904,5.88 L129.904,19.768 C129.904,20.92 129.904,23.32 132.496,23.32 C133.904,23.32 134.576,22.488 135.024,21.912 L135.024,23 Z" id="type-3" fill="#AC5CF0"></path>
            </g>
        </g>
        <g id="violet" sketch:type="MSLayerGroup" transform="translate(0.000000, -50.000000)"></g>
    </g>
</svg>